<svg width="176" height="69" viewBox="0 0 176 69" fill="none" xmlns="http://www.w3.org/2000/svg">
<path d="M2.91385 19.7244L7.26289 21.998C8.36462 22.6684 8.91552 23.6449 8.91552 24.9274C8.91552 25.7727 8.61109 26.5015 8.00222 27.1136C7.42237 27.7257 6.68302 28.0317 5.78422 28.0317C4.9434 28.0317 4.21856 27.7257 3.6097 27.1136C3.00083 26.5015 2.6964 25.7727 2.6964 24.9274C2.6964 24.5193 2.56593 24.1695 2.30499 23.8781C2.04405 23.5866 1.75411 23.4409 1.43518 23.4409C1.02927 23.4409 0.681351 23.5866 0.391413 23.8781C0.130471 24.1695 0 24.5193 0 24.9274C0 26.4723 0.579871 27.8277 1.73961 28.9936C2.89936 30.1595 4.24756 30.7426 5.78422 30.7426C7.43685 30.7426 8.81407 30.1742 9.9158 29.0374C11.0465 27.8714 11.6119 26.5015 11.6119 24.9274C11.6119 23.7615 11.322 22.7121 10.7421 21.7794C10.1623 20.8175 9.40839 20.1325 8.48062 19.7244L4.13158 17.4071C3.1748 16.7076 2.6964 15.8039 2.6964 14.6963C2.6964 13.7927 3.00083 13.0494 3.6097 12.4664C4.21856 11.8834 4.9434 11.592 5.78422 11.592C6.71201 11.592 7.46587 11.8834 8.04571 12.4664C8.62556 13.0202 8.91552 13.7635 8.91552 14.6963C8.91552 15.0461 9.04599 15.3521 9.30693 15.6145C9.59689 15.8476 9.94481 15.9643 10.3507 15.9643C10.6696 15.9643 10.9596 15.8331 11.2205 15.5708C11.4815 15.3084 11.6119 15.0169 11.6119 14.6963C11.6119 13.0348 11.061 11.6503 9.95929 10.5426C8.85756 9.43495 7.46587 8.88118 5.78422 8.88118C4.21856 8.88118 2.85587 9.44957 1.69612 10.5864C0.565374 11.694 0 13.0639 0 14.6963C0 16.9699 0.971282 18.6459 2.91385 19.7244Z" fill="black"/>
<path d="M19.2815 11.6357V24.9274C19.2815 25.7727 19.5859 26.5015 20.1948 27.1136C20.8327 27.7257 21.5575 28.0317 22.3693 28.0317C23.2681 28.0317 24.0075 27.7257 24.5873 27.1136C25.1672 26.5015 25.4571 25.7727 25.4571 24.9274C25.4571 24.6068 25.6021 24.3153 25.892 24.053C26.182 23.7906 26.5299 23.6595 26.9358 23.6595C27.2258 23.6595 27.5012 23.7906 27.7621 24.053C28.0231 24.3153 28.1535 24.6068 28.1535 24.9274C28.1535 26.5889 27.6026 27.9734 26.5009 29.0811C25.3992 30.1887 24.022 30.7426 22.3693 30.7426C20.8037 30.7426 19.441 30.1887 18.2812 29.0811C17.1505 27.9443 16.5851 26.5597 16.5851 24.9274V2.27902C16.5851 1.87095 16.7011 1.53574 16.933 1.2734C17.194 0.981912 17.4984 0.836172 17.8463 0.836172H18.0203C18.3682 0.836172 18.6582 0.981912 18.8901 1.2734C19.151 1.53574 19.2815 1.87095 19.2815 2.27902V8.9249H24.8483C25.1672 8.9249 25.4571 9.07062 25.7181 9.36213C25.979 9.62446 26.1095 9.95962 26.1095 10.3677C26.1095 10.6884 25.979 10.9799 25.7181 11.2422C25.4571 11.5045 25.1672 11.6357 24.8483 11.6357H19.2815Z" fill="black"/>
<path d="M42.9121 15.5708V14.74C42.9121 13.166 42.3322 11.796 41.1724 10.6301C40.0127 9.46412 38.65 8.88118 37.0844 8.88118C35.4607 8.88118 34.098 9.46412 32.9963 10.6301C31.8945 11.7669 31.3436 13.1368 31.3436 14.74V24.8837C31.3436 26.5743 31.88 27.9734 32.9528 29.0811C34.0545 30.1887 35.4317 30.7426 37.0844 30.7426C38.679 30.7426 40.0417 30.1887 41.1724 29.0811C42.3322 27.9443 42.9121 26.5452 42.9121 24.8837C42.9121 24.563 42.7671 24.2861 42.4772 24.053C42.2162 23.7906 41.8828 23.6595 41.4769 23.6595C41.158 23.6595 40.868 23.7906 40.6071 24.053C40.3461 24.2861 40.2157 24.563 40.2157 24.8837C40.2157 25.8164 39.9112 26.5743 39.3024 27.1573C38.6935 27.7402 37.9542 28.0317 37.0844 28.0317C36.1566 28.0317 35.4027 27.7402 34.8229 27.1573C34.272 26.5743 33.9965 25.8164 33.9965 24.8837V21.3422H37.0844C38.679 21.3422 40.0417 20.7883 41.1724 19.6807C42.3322 18.573 42.9121 17.2031 42.9121 15.5708ZM40.2157 14.74V15.5708C40.2157 16.4743 39.9112 17.2176 39.3024 17.8006C38.6935 18.3836 37.9542 18.6751 37.0844 18.6751H33.9965V14.74C33.9965 13.8947 34.2865 13.166 34.8663 12.5539C35.4462 11.9126 36.1855 11.592 37.0844 11.592C37.9251 11.592 38.65 11.9126 39.2589 12.5539C39.8968 13.166 40.2157 13.8947 40.2157 14.74Z" fill="black"/>
<path d="M47.0154 24.0967V24.9274C47.0154 26.5306 47.5808 27.9006 48.7116 29.0374C49.8713 30.1742 51.2485 30.7426 52.8431 30.7426C54.4378 30.7426 55.8005 30.1742 56.9312 29.0374C58.091 27.9006 58.6709 26.5306 58.6709 24.9274V14.74C58.6709 13.1368 58.091 11.7669 56.9312 10.6301C55.8005 9.49329 54.4378 8.9249 52.8431 8.9249C51.2485 8.9249 49.8713 9.49329 48.7116 10.6301C47.5808 11.7669 47.0154 13.1368 47.0154 14.74C47.0154 15.1189 47.1459 15.4396 47.4069 15.7019C47.6678 15.9643 47.9867 16.0954 48.3636 16.0954C48.7406 16.0954 49.0595 15.9643 49.3204 15.7019C49.5814 15.4396 49.7118 15.1189 49.7118 14.74C49.7118 13.8947 50.0163 13.166 50.6251 12.5539C51.234 11.9126 51.9733 11.592 52.8431 11.592C53.6839 11.592 54.4088 11.9126 55.0177 12.5539C55.6555 13.166 55.9745 13.8947 55.9745 14.74V18.2378H52.8431C51.2195 18.2378 49.8423 18.8062 48.7116 19.943C47.5808 21.0798 47.0154 22.4643 47.0154 24.0967ZM49.7118 24.9274V24.0967C49.7118 23.2513 50.0163 22.5227 50.6251 21.9106C51.234 21.2693 51.9733 20.9487 52.8431 20.9487H55.9745V24.9274C55.9745 25.7727 55.6555 26.516 55.0177 27.1573C54.4088 27.7694 53.6839 28.0755 52.8431 28.0755C51.9733 28.0755 51.234 27.7694 50.6251 27.1573C50.0163 26.516 49.7118 25.7727 49.7118 24.9274Z" fill="black"/>
<path d="M63.112 14.6526V24.9712C63.112 26.5452 63.6629 27.9006 64.7646 29.0374C65.8953 30.1742 67.258 30.7426 68.8527 30.7426C70.4183 30.7426 71.7665 30.1742 72.8973 29.0374C74.028 27.9006 74.5934 26.5452 74.5934 24.9712V2.2353C74.5934 1.85637 74.4629 1.53574 74.202 1.2734C73.9703 1.01106 73.7093 0.879895 73.4192 0.879895H73.1147C72.8246 0.879895 72.5636 1.01106 72.3319 1.2734C72.1002 1.53574 71.984 1.85637 71.984 2.2353V8.88118H68.8527C67.2291 8.88118 65.8663 9.43495 64.7646 10.5426C63.6629 11.6211 63.112 12.9911 63.112 14.6526ZM68.8527 11.5483H71.984V24.9712C71.984 25.7873 71.6653 26.516 71.0272 27.1573C70.3891 27.7985 69.6647 28.1192 68.8527 28.1192C67.9537 28.1192 67.2145 27.8131 66.6347 27.201C66.0548 26.5889 65.7649 25.8456 65.7649 24.9712V14.6526C65.7649 13.7198 66.0403 12.9619 66.5912 12.379C67.171 11.796 67.9249 11.5045 68.8527 11.5045V11.5483Z" fill="black"/>
<path d="M78.8276 29.4746V6.2578C78.8276 4.59633 79.4072 3.16805 80.5672 1.97296C81.7557 0.77787 83.1332 0.180328 84.6988 0.180328C86.3222 0.180328 87.699 0.77787 88.8297 1.97296C89.9605 3.13891 90.5258 4.56718 90.5258 6.2578C90.5258 6.57843 90.3811 6.86993 90.0909 7.13226C89.83 7.3946 89.5405 7.52577 89.2218 7.52577C88.8447 7.52577 88.511 7.3946 88.2215 7.13226C87.9314 6.86993 87.7866 6.57843 87.7866 6.2578C87.7866 5.29589 87.4965 4.49431 86.9168 3.85304C86.3365 3.21177 85.5972 2.89114 84.6988 2.89114C83.8575 2.89114 83.1182 3.22635 82.4808 3.89677C81.8719 4.53804 81.5675 5.32505 81.5675 6.2578V18.0192H86.7422C87.1485 18.0192 87.4965 18.165 87.7866 18.4565C88.0761 18.7479 88.2215 19.0977 88.2215 19.5058C88.2215 19.8264 88.0761 20.1179 87.7866 20.3803C87.4965 20.6426 87.1485 20.7738 86.7422 20.7738H81.5675V29.4746C81.5675 29.7952 81.4363 30.0867 81.1754 30.3491C80.9145 30.6114 80.625 30.7426 80.3056 30.7426H80.1323C79.8129 30.7426 79.5085 30.6114 79.2183 30.3491C78.9574 30.0867 78.8276 29.7952 78.8276 29.4746Z" fill="black"/>
<path d="M92.2892 24.0967V24.9274C92.2892 26.5306 92.8553 27.9006 93.986 29.0374C95.1453 30.1742 96.5228 30.7426 98.1176 30.7426C99.7118 30.7426 101.074 30.1742 102.205 29.0374C103.365 27.9006 103.945 26.5306 103.945 24.9274V14.74C103.945 13.1368 103.365 11.7669 102.205 10.6301C101.074 9.49329 99.7118 8.9249 98.1176 8.9249C96.5228 8.9249 95.1453 9.49329 93.986 10.6301C92.8553 11.7669 92.2892 13.1368 92.2892 14.74C92.2892 15.1189 92.4204 15.4396 92.6813 15.7019C92.9423 15.9643 93.261 16.0954 93.6374 16.0954C94.0146 16.0954 94.3333 15.9643 94.5942 15.7019C94.8552 15.4396 94.9863 15.1189 94.9863 14.74C94.9863 13.8947 95.2901 13.166 95.8989 12.5539C96.5078 11.9126 97.2478 11.592 98.1176 11.592C98.9582 11.592 99.6833 11.9126 100.292 12.5539C100.93 13.166 101.249 13.8947 101.249 14.74V18.2378H98.1176C96.4935 18.2378 95.1168 18.8062 93.986 19.943C92.8553 21.0798 92.2892 22.4643 92.2892 24.0967ZM94.9863 24.9274V24.0967C94.9863 23.2513 95.2901 22.5227 95.8989 21.9106C96.5078 21.2693 97.2478 20.9487 98.1176 20.9487H101.249V24.9274C101.249 25.7727 100.93 26.516 100.292 27.1573C99.6833 27.7694 98.9582 28.0755 98.1176 28.0755C97.2478 28.0755 96.5078 27.7694 95.8989 27.1573C95.2901 26.516 94.9863 25.7727 94.9863 24.9274Z" fill="black"/>
<path d="M111.3 19.7244L115.649 21.998C116.751 22.6684 117.302 23.6449 117.302 24.9274C117.302 25.7727 116.997 26.5015 116.388 27.1136C115.809 27.7257 115.069 28.0317 114.17 28.0317C113.33 28.0317 112.605 27.7257 111.996 27.1136C111.387 26.5015 111.082 25.7727 111.082 24.9274C111.082 24.5193 110.952 24.1695 110.691 23.8781C110.43 23.5866 110.14 23.4409 109.821 23.4409C109.416 23.4409 109.068 23.5866 108.778 23.8781C108.517 24.1695 108.386 24.5193 108.386 24.9274C108.386 26.4723 108.966 27.8277 110.126 28.9936C111.286 30.1595 112.634 30.7426 114.17 30.7426C115.823 30.7426 117.2 30.1742 118.302 29.0374C119.433 27.8714 119.998 26.5015 119.998 24.9274C119.998 23.7615 119.708 22.7121 119.128 21.7794C118.549 20.8175 117.794 20.1325 116.867 19.7244L112.518 17.4071C111.561 16.7076 111.082 15.8039 111.082 14.6963C111.082 13.7927 111.387 13.0494 111.996 12.4664C112.605 11.8834 113.33 11.592 114.17 11.592C115.098 11.592 115.852 11.8834 116.432 12.4664C117.011 13.0202 117.302 13.7635 117.302 14.6963C117.302 15.0461 117.432 15.3521 117.693 15.6145C117.983 15.8476 118.331 15.9643 118.737 15.9643C119.055 15.9643 119.346 15.8331 119.607 15.5708C119.868 15.3084 119.998 15.0169 119.998 14.6963C119.998 13.0348 119.447 11.6503 118.345 10.5426C117.244 9.43495 115.852 8.88118 114.17 8.88118C112.605 8.88118 111.242 9.44957 110.082 10.5864C108.951 11.694 108.386 13.0639 108.386 14.6963C108.386 16.9699 109.357 18.6459 111.3 19.7244Z" fill="black"/>
<path d="M127.667 11.6357V24.9274C127.667 25.7727 127.972 26.5015 128.581 27.1136C129.219 27.7257 129.944 28.0317 130.756 28.0317C131.654 28.0317 132.393 27.7257 132.973 27.1136C133.553 26.5015 133.843 25.7727 133.843 24.9274C133.843 24.6068 133.988 24.3153 134.278 24.053C134.568 23.7906 134.916 23.6595 135.322 23.6595C135.612 23.6595 135.888 23.7906 136.149 24.053C136.41 24.3153 136.539 24.6068 136.539 24.9274C136.539 26.5889 135.989 27.9734 134.887 29.0811C133.785 30.1887 132.408 30.7426 130.756 30.7426C129.19 30.7426 127.827 30.1887 126.667 29.0811C125.536 27.9443 124.971 26.5597 124.971 24.9274V2.27902C124.971 1.87095 125.087 1.53574 125.319 1.2734C125.58 0.981912 125.884 0.836172 126.232 0.836172H126.406C126.754 0.836172 127.044 0.981912 127.276 1.2734C127.537 1.53574 127.667 1.87095 127.667 2.27902V8.9249H133.234C133.553 8.9249 133.843 9.07062 134.104 9.36213C134.365 9.62446 134.496 9.95962 134.496 10.3677C134.496 10.6884 134.365 10.9799 134.104 11.2422C133.843 11.5045 133.553 11.6357 133.234 11.6357H127.667Z" fill="black"/>
<path d="M71.9413 61.354V62.7531C71.9413 63.5984 71.6368 64.3271 71.028 64.9392C70.4483 65.5514 69.7239 65.8574 68.8541 65.8574C68.0129 65.8574 67.2881 65.5514 66.6793 64.9392C66.0704 64.3271 65.766 63.5984 65.766 62.7531C65.766 62.3742 65.6355 62.0535 65.3746 61.7912C65.1426 61.5289 64.8382 61.3977 64.4613 61.3977C64.0843 61.3977 63.7654 61.5289 63.5045 61.7912C63.2435 62.0535 63.1131 62.3742 63.1131 62.7531C63.1131 64.3271 63.6784 65.6679 64.8092 66.7756C65.9399 67.9124 67.2881 68.4808 68.8541 68.4808C70.4483 68.4808 71.8108 67.9124 72.9415 66.7756C74.0723 65.6679 74.6384 64.3271 74.6384 62.7531V45.4389C74.6384 43.8649 74.0723 42.5095 72.9415 41.3727C71.8108 40.2359 70.4483 39.6675 68.8541 39.6675C67.2591 39.6675 65.8965 40.2359 64.7657 41.3727C63.635 42.5095 63.0696 43.8649 63.0696 45.4389V55.5826C63.0696 57.1566 63.6205 58.512 64.7222 59.6488C65.8239 60.7564 67.1577 61.3248 68.723 61.354H71.9413ZM65.7225 55.5826V45.4389C65.7225 44.5935 66.0269 43.8649 66.6358 43.2528C67.2737 42.6406 68.0129 42.3346 68.8541 42.3346C69.7239 42.3346 70.4483 42.6406 71.028 43.2528C71.6368 43.8649 71.9413 44.5935 71.9413 45.4389V58.6869H68.723C67.8825 58.6869 67.1721 58.3954 66.5923 57.8124C66.0124 57.2003 65.7225 56.457 65.7225 55.5826Z" fill="url(#paint0_linear)"/>
<path d="M78.7414 40.8917V60.0423C78.7414 60.4504 78.8576 60.8001 79.0893 61.0916C79.3503 61.354 79.6547 61.4851 80.0026 61.4851C80.4083 61.4851 80.742 61.354 81.0029 61.0916C81.2931 60.8001 81.4378 60.4504 81.4378 60.0423V42.3346H84.5256C85.3662 42.3346 86.0913 42.626 86.7001 43.209C87.309 43.792 87.6134 44.5353 87.6134 45.4389C87.6134 45.7595 87.7582 46.051 88.0483 46.3133C88.3385 46.5757 88.6864 46.7068 89.0921 46.7068C89.4108 46.7068 89.6867 46.5757 89.9184 46.3133C90.1794 46.051 90.3098 45.7595 90.3098 45.4389C90.3098 43.7774 89.7587 42.3928 88.6572 41.2852C87.5557 40.1775 86.1782 39.6238 84.5256 39.6238H80.1766C79.7709 39.6238 79.423 39.7549 79.1328 40.0173C78.8719 40.2796 78.7414 40.571 78.7414 40.8917Z" fill="url(#paint1_linear)"/>
<path d="M93.734 54.8393V55.67C93.734 57.2732 94.2994 58.6432 95.4301 59.78C96.5894 60.9168 97.9669 61.4851 99.5617 61.4851C101.156 61.4851 102.518 60.9168 103.649 59.78C104.809 58.6432 105.389 57.2732 105.389 55.67V45.4826C105.389 43.8794 104.809 42.5095 103.649 41.3727C102.518 40.2359 101.156 39.6675 99.5617 39.6675C97.9669 39.6675 96.5894 40.2359 95.4301 41.3727C94.2994 42.5095 93.734 43.8794 93.734 45.4826C93.734 45.8615 93.8645 46.1822 94.1254 46.4445C94.3864 46.7069 94.7051 46.838 95.0815 46.838C95.4587 46.838 95.7774 46.7069 96.0383 46.4445C96.2993 46.1822 96.4304 45.8615 96.4304 45.4826C96.4304 44.6373 96.7342 43.9086 97.343 43.2965C97.9519 42.6552 98.6919 42.3346 99.5617 42.3346C100.402 42.3346 101.127 42.6552 101.736 43.2965C102.374 43.9086 102.693 44.6373 102.693 45.4826V48.9804H99.5617C97.9376 48.9804 96.5609 49.5488 95.4301 50.6856C94.2994 51.8224 93.734 53.2069 93.734 54.8393ZM96.4304 55.67V54.8393C96.4304 53.9939 96.7342 53.2653 97.343 52.6531C97.9519 52.0119 98.6919 51.6912 99.5617 51.6912H102.693V55.67C102.693 56.5153 102.374 57.2586 101.736 57.8999C101.127 58.512 100.402 58.8181 99.5617 58.8181C98.6919 58.8181 97.9519 58.512 97.343 57.8999C96.7342 57.2586 96.4304 56.5153 96.4304 55.67Z" fill="url(#paint2_linear)"/>
<path d="M109.83 45.4389V67.0817C109.83 67.4605 109.961 67.7812 110.222 68.0436C110.483 68.3353 110.773 68.4808 111.091 68.4808H111.265C111.584 68.4808 111.874 68.3353 112.135 68.0436C112.396 67.7812 112.527 67.4605 112.527 67.0817V61.3977H115.614C117.267 61.3977 118.644 60.873 119.746 59.8237C120.848 58.7452 121.399 57.4043 121.399 55.8012V45.4389C121.399 43.8357 120.848 42.4803 119.746 41.3727C118.644 40.2359 117.267 39.6675 115.614 39.6675C114.049 39.6675 112.686 40.2359 111.526 41.3727C110.396 42.5095 109.83 43.8649 109.83 45.4389ZM112.527 58.9929V45.4389C112.527 44.5644 112.831 43.8211 113.44 43.209C114.049 42.5677 114.774 42.2471 115.614 42.2471C116.542 42.2471 117.281 42.5532 117.832 43.1653C118.412 43.7774 118.702 44.5353 118.702 45.4389V55.8012C118.702 56.7047 118.412 57.4627 117.832 58.0748C117.281 58.6869 116.542 58.9929 115.614 58.9929H112.527Z" fill="url(#paint3_linear)"/>
<path d="M128.199 39.6675H131.286C132.939 39.6675 134.316 40.2213 135.417 41.3289C136.52 42.4366 137.071 43.8211 137.071 45.4826V60.0423C137.071 60.4504 136.94 60.8001 136.679 61.0916C136.447 61.354 136.172 61.4851 135.852 61.4851C135.447 61.4851 135.099 61.354 134.809 61.0916C134.519 60.8001 134.374 60.4504 134.374 60.0423V45.264C134.374 44.3312 134.084 43.5879 133.505 43.0341C132.953 42.4511 132.214 42.1597 131.286 42.1597H128.199V60.0423C128.199 60.4504 128.068 60.8001 127.807 61.0916C127.546 61.354 127.256 61.4851 126.937 61.4851C126.531 61.4851 126.183 61.354 125.894 61.0916C125.633 60.8001 125.502 60.4504 125.502 60.0423V32.803C125.502 32.3949 125.618 32.0597 125.85 31.7974C126.111 31.5059 126.401 31.3602 126.72 31.3602H126.937C127.256 31.3602 127.546 31.5059 127.807 31.7974C128.068 32.0597 128.199 32.3949 128.199 32.803V39.6675Z" fill="url(#paint4_linear)"/>
<path d="M143.87 32.5844C143.87 32.2637 143.74 31.9723 143.479 31.7099C143.218 31.4476 142.928 31.3164 142.609 31.3164C142.203 31.3164 141.855 31.4476 141.565 31.7099C141.275 31.9723 141.13 32.2637 141.13 32.5844C141.13 33.0216 141.275 33.386 141.565 33.6775C141.855 33.9398 142.203 34.071 142.609 34.071C142.957 34.071 143.247 33.9398 143.479 33.6775C143.74 33.386 143.87 33.0216 143.87 32.5844ZM141.13 40.2796V60.1735C141.13 60.4941 141.275 60.7856 141.565 61.0479C141.855 61.3103 142.203 61.4414 142.609 61.4414C142.957 61.4414 143.247 61.3103 143.479 61.0479C143.74 60.7564 143.87 60.3921 143.87 59.9549V40.2796C143.87 39.9589 143.74 39.6675 143.479 39.4051C143.218 39.1428 142.928 39.0116 142.609 39.0116H142.392C142.101 39.0116 141.812 39.1428 141.522 39.4051C141.261 39.6675 141.13 39.9589 141.13 40.2796Z" fill="url(#paint5_linear)"/>
<path d="M148.564 45.4389V55.67C148.564 57.2149 149.143 58.5703 150.303 59.7362C151.463 60.9021 152.812 61.4851 154.348 61.4851C156.001 61.4851 157.378 60.9168 158.48 59.78C159.581 58.614 160.132 57.244 160.132 55.67C160.132 55.262 160.002 54.9121 159.741 54.6207C159.509 54.3292 159.233 54.1834 158.914 54.1834C158.509 54.1834 158.161 54.3292 157.871 54.6207C157.61 54.9121 157.479 55.262 157.479 55.67C157.479 56.5153 157.175 57.244 156.566 57.8562C155.986 58.4683 155.247 58.7743 154.348 58.7743C153.507 58.7743 152.782 58.4683 152.173 57.8562C151.565 57.244 151.26 56.5153 151.26 55.67V45.4389C151.26 44.5353 151.565 43.792 152.173 43.209C152.782 42.626 153.507 42.3346 154.348 42.3346C155.276 42.3346 156.03 42.626 156.609 43.209C157.189 43.7628 157.479 44.5061 157.479 45.4389C157.479 45.7887 157.61 46.0947 157.871 46.3571C158.161 46.5902 158.509 46.7068 158.914 46.7068C159.233 46.7068 159.509 46.5757 159.741 46.3133C160.002 46.051 160.132 45.7595 160.132 45.4389C160.132 43.7774 159.581 42.3928 158.48 41.2852C157.378 40.1775 156.001 39.6238 154.348 39.6238C152.782 39.6238 151.42 40.1922 150.26 41.3289C149.129 42.4366 148.564 43.8065 148.564 45.4389Z" fill="url(#paint6_linear)"/>
<path d="M167.149 50.467L171.499 52.7406C172.6 53.411 173.151 54.3875 173.151 55.67C173.151 56.5153 172.847 57.244 172.238 57.8562C171.658 58.4683 170.919 58.7743 170.019 58.7743C169.179 58.7743 168.454 58.4683 167.845 57.8562C167.236 57.244 166.932 56.5153 166.932 55.67C166.932 55.262 166.801 54.9121 166.54 54.6207C166.279 54.3292 165.99 54.1834 165.67 54.1834C165.265 54.1834 164.917 54.3292 164.627 54.6207C164.366 54.9121 164.236 55.262 164.236 55.67C164.236 57.2149 164.816 58.5703 165.975 59.7362C167.135 60.9021 168.483 61.4851 170.019 61.4851C171.672 61.4851 173.05 60.9168 174.152 59.78C175.282 58.614 175.848 57.244 175.848 55.67C175.848 54.5041 175.558 53.4547 174.978 52.522C174.398 51.5601 173.644 50.8751 172.716 50.467L168.368 48.1497C167.411 47.4501 166.932 46.5465 166.932 45.4389C166.932 44.5353 167.236 43.792 167.845 43.209C168.454 42.626 169.179 42.3346 170.019 42.3346C170.948 42.3346 171.701 42.626 172.281 43.209C172.861 43.7628 173.151 44.5061 173.151 45.4389C173.151 45.7887 173.281 46.0947 173.542 46.3571C173.832 46.5902 174.18 46.7068 174.586 46.7068C174.905 46.7068 175.195 46.5757 175.456 46.3133C175.717 46.051 175.848 45.7595 175.848 45.4389C175.848 43.7774 175.297 42.3928 174.195 41.2852C173.093 40.1775 171.701 39.6238 170.019 39.6238C168.454 39.6238 167.091 40.1922 165.932 41.3289C164.801 42.4366 164.236 43.8065 164.236 45.4389C164.236 47.7125 165.207 49.3885 167.149 50.467Z" fill="url(#paint7_linear)"/>
<defs>
<linearGradient id="paint0_linear" x1="63.0696" y1="49.8986" x2="175.848" y2="49.8986" gradientUnits="userSpaceOnUse">
<stop stop-color="#4CB8C4"/>
<stop offset="1" stop-color="#3CD3AD"/>
</linearGradient>
<linearGradient id="paint1_linear" x1="63.0696" y1="49.8986" x2="175.848" y2="49.8986" gradientUnits="userSpaceOnUse">
<stop stop-color="#4CB8C4"/>
<stop offset="1" stop-color="#3CD3AD"/>
</linearGradient>
<linearGradient id="paint2_linear" x1="63.0696" y1="49.8986" x2="175.848" y2="49.8986" gradientUnits="userSpaceOnUse">
<stop stop-color="#4CB8C4"/>
<stop offset="1" stop-color="#3CD3AD"/>
</linearGradient>
<linearGradient id="paint3_linear" x1="63.0696" y1="49.8986" x2="175.848" y2="49.8986" gradientUnits="userSpaceOnUse">
<stop stop-color="#4CB8C4"/>
<stop offset="1" stop-color="#3CD3AD"/>
</linearGradient>
<linearGradient id="paint4_linear" x1="63.0696" y1="49.8986" x2="175.848" y2="49.8986" gradientUnits="userSpaceOnUse">
<stop stop-color="#4CB8C4"/>
<stop offset="1" stop-color="#3CD3AD"/>
</linearGradient>
<linearGradient id="paint5_linear" x1="63.0696" y1="49.8986" x2="175.848" y2="49.8986" gradientUnits="userSpaceOnUse">
<stop stop-color="#4CB8C4"/>
<stop offset="1" stop-color="#3CD3AD"/>
</linearGradient>
<linearGradient id="paint6_linear" x1="63.0696" y1="49.8986" x2="175.848" y2="49.8986" gradientUnits="userSpaceOnUse">
<stop stop-color="#4CB8C4"/>
<stop offset="1" stop-color="#3CD3AD"/>
</linearGradient>
<linearGradient id="paint7_linear" x1="63.0696" y1="49.8986" x2="175.848" y2="49.8986" gradientUnits="userSpaceOnUse">
<stop stop-color="#4CB8C4"/>
<stop offset="1" stop-color="#3CD3AD"/>
</linearGradient>
</defs>
</svg>
